<svg width="1450" height="200" viewBox="0 0 1450 200" xmlns="http://www.w3.org/2000/svg"><title>ancestry-dna</title><g fill="none" fill-rule="evenodd"><path d="M1143.027 128.294c34.852 0 49.5-23.738 49.5-56.57 0-33.336-15.154-56.067-49.5-56.067h-19.7v112.637h19.7zM1114.237 8.08h29.8c39.398 0 58.084 24.752 58.084 63.643 0 38.892-18.685 64.652-58.083 64.652h-29.8V8.08zM1231.42 8.08h9.09l54.046 90.414 14.65 25.257h1.01c-.505-12.627-1.01-24.75-1.01-37.377V8.083h8.587V135.87h-9.092l-54.046-90.41-14.647-25.258h-1.012c.506 12.124 1.012 23.74 1.012 36.368v79.3h-8.587V8.08zM1410.222 84.854l-8.08-23.738c-5.053-15.153-9.6-28.793-14.144-44.45h-1.01c-4.546 15.657-9.092 28.79-14.144 44.45l-8.08 23.738h45.458zm2.018 7.576h-50.507l-15.155 43.943h-9.092L1382.44 8.585h9.09l44.954 127.788h-9.595l-14.65-43.943z" fill="#9CBE30"/><path d="M321.24 85.36c-12.124 1.517-19.7 5.052-24.75 9.598-4.04 4.04-5.557 9.09-5.557 14.14 0 9.097 6.568 15.662 14.65 15.662 5.05 0 9.595-2.525 12.627-5.054 1.01-1.007 2.523-3.03 2.523-5.05l.507-29.296zm21.214 54.045c-9.597 0-19.195-6.565-21.214-16.667-5.052 9.092-14.647 16.667-27.275 16.667-14.65 0-26.266-11.11-26.266-25.257 0-19.7 18.688-33.842 54.046-34.346v-5.05c.503-13.638-7.578-22.73-21.215-22.73-10.607 0-20.708 6.566-27.78 15.153-.506.504-3.535-2.526-3.535-3.032 9.09-17.676 25.76-28.284 42.933-28.284 19.7 0 33.842 14.142 33.336 37.377l-1.516 39.395c0 9.094 4.042 13.13 8.588 13.13 5.05 0 8.585-4.04 10.607-9.09 0-.507 3.03 1.01 3.03 1.516-1.516 13.642-11.618 21.217-23.74 21.217zM467.72 135.87h-26.772c-.504 0-.504-5.053 0-5.053 11.114-1.513 12.627-2.523 12.627-24.244V76.27c0-13.134-8.08-23.235-19.698-23.235-8.082 0-15.657 4.04-19.193 9.09-2.526 3.03-4.042 8.586-4.042 15.658v28.79c0 21.72 2.526 22.73 13.133 24.244 0 0 .506 5.052 0 5.052h-51.517c-.506 0-.506-5.053-.506-5.053 12.124-2.02 13.638-2.523 13.638-24.244V69.7c0-21.717-2.526-23.233-15.657-25.253-1.01 0-.505-5.052 0-5.052h38.39V61.62h.502c8.588-15.657 21.72-25.255 37.378-25.255 17.677 0 32.326 13.637 32.326 37.378v32.83c0 21.72 2.02 22.73 14.143 24.244 1.01 0 .503 5.052 0 5.052h-24.75zM549.037 139.91c-30.306 0-50.005-23.737-50.005-51.014 0-28.79 19.7-52.528 52.025-52.528 15.153 0 22.224 5.05 27.276 5.05 2.524 0 4.04-1.514 5.05-4.04 0-.506 5.555-.506 5.555 0v36.365c0 .506-5.555.506-6.06 0-8.08-16.666-19.194-30.81-32.325-30.81-16.163 0-25.254 17.173-25.254 40.914 0 25.254 13.13 41.92 31.312 41.92 12.124 0 25.257-8.584 31.316-18.688.507-1.008 4.546 1.01 4.546 2.02-6.565 17.174-24.244 30.81-43.437 30.81M671.27 75.26v-7.072c0-15.657-7.576-24.748-17.174-24.748-12.123 0-21.215 13.13-23.234 31.82h40.407zM630.86 86.876c0 21.214 12.12 38.387 32.832 38.387 12.12 0 24.244-8.08 30.81-17.68 0-.505 4.04 1.01 4.04 1.517-5.05 17.174-23.74 30.305-43.944 30.305-31.82 0-50.51-23.232-50.51-51.012s19.7-52.53 52.532-52.53c25.255 0 41.92 16.668 43.437 39.396v7.07h-68.692c-.506 1.01-.506 3.537-.506 4.547zM751.074 138.9c-15.657 0-29.296-4.043-33.842-7.07-.504-.504-1.513-13.134-2.02-26.77 0-.504 5.556-1.01 6.062 0 8.082 17.172 19.7 27.78 32.326 27.78 10.607 0 18.183-5.05 18.183-14.65 0-10.1-11.618-14.647-24.245-19.7-14.647-5.554-31.316-13.132-31.316-31.82 0-14.648 12.627-29.8 36.368-29.8 10.1 0 16.667 4.04 21.212 4.04 2.526 0 4.045-1.515 5.052-4.04 0-.505 5.556-.505 5.556 0v33.335c0 .506-6.062.506-6.563 0-8.082-15.15-17.68-25.758-28.79-25.758-10.608 0-15.66 7.072-15.66 12.627 0 9.595 11.615 14.143 23.74 19.193 14.648 6.06 31.82 13.637 31.82 32.832.505 16.668-14.648 29.8-37.883 29.8M801.08 50.51c-1.517 0-1.517-4.043-.507-5.053 10.607-9.092 28.286-25.255 37.884-35.356.503-.505 4.042 0 4.042 1.01v29.8h34.344c1.01 0 1.01 9.092 0 9.092H842.5v56.067c0 12.626 7.574 18.688 15.658 18.688 5.556 0 12.627-5.052 15.657-11.114 0-.503 4.042 1.514 4.042 2.524-4.042 13.637-17.176 24.244-31.822 24.244-15.657 0-28.284-9.597-28.284-29.8V51.516l-16.67-1.007zM959.677 66.168c-3.03 0-10.608-9.09-16.163-9.09-2.524 0-5.052 1.515-8.08 4.038-4.044 4.042-7.575 13.64-7.575 21.72v24.245c0 21.72 3.533 22.73 15.15 24.246 0 0 .506 5.05 0 5.05h-53.035c-.503 0-.503-5.05 0-5.05 12.124-2.022 13.637-2.526 13.637-24.245V70.21c0-21.72-2.523-23.235-15.66-25.257-1.006 0-.505-5.05 0-5.05h38.892V65.16h1.01c1.013-3.032 3.035-6.565 4.548-9.598 7.07-11.617 15.66-18.688 24.75-18.688 8.586 0 15.658 6.568 15.658 13.64.002 7.574-10.1 15.656-13.133 15.656M1077.872 50.005c-4.042 4.042-7.072 12.123-13.637 29.8l-32.833 83.847c-11.617 29.8-21.718 35.862-36.365 35.862-8.08 0-17.173-4.045-17.173-6.568-.506-4.04 5.05-18.69 8.08-18.69 1.01 0 13.13 5.56 19.192 5.56 8.59 0 14.145-5.053 18.69-17.68l6.06-16.163c-2.526-8.08-26.27-60.613-28.792-68.188-6.06-14.143-10.1-25.254-14.143-28.79-2.523-2.526-5.05-3.536-12.123-4.546-.5 0-.5-5.052 0-5.052 6.568 0 20.208.506 27.78.506 7.578 0 20.712-.506 27.28-.506.503 0 .503 5.05 0 5.05-15.156 2.02-13.64 7.073-5.052 27.275l17.676 42.43 13.638-36.874c5.05-12.628 7.573-20.203 7.573-24.75 0-5.05-3.535-7.577-13.634-8.08-.506 0-.506-5.556 0-5.556 7.072 0 16.163.504 22.225.504 4.547 0 9.092-.504 17.68-.504.504 0 1.01 5.555 0 5.555-6.563.503-9.09 2.525-12.118 5.555" fill="#54524F"/><path d="M151.022 33.336c-17.68-19.193-35.355-16.163-38.387-15.657 1.516.503 3.032 33.84 21.718 51.518 12.627 11.617 38.388 7.575 38.388 7.575S168.2 51.52 151.023 33.336m21.218 64.652c-5.56 0-28.287 2.02-43.44 20.71-15.657 19.7-15.153 35.356-18.69 38.892 3.033 1.01 34.853 4.042 48.49-16.667 13.133-19.195 13.64-39.4 13.64-42.935M33.84 84.854c3.535.506 15.66 16.163 37.377 18.186 23.74 2.525 31.823-9.598 32.326-9.598 0-1.516-19.192-22.225-40.407-22.225-14.645 0-29.296 13.637-29.296 13.637m86.372 10.104c-.506.504-20.205 26.77-66.674 19.7C16.163 108.594 2.526 88.39 0 87.885c3.03-4.042 31.316-26.77 64.146-26.264 32.326 1.01 56.066 19.193 56.066 19.193h20.71c-16.67-5.052-36.873-14.143-45.964-34.346-8.08-18.69-6.568-29.803-10.104-45.46 0 0 37.378-3.03 66.168 15.657 26.264 17.175 40.914 62.632 41.418 64.148h16.162L205.067 0l20.205.504c-3.536 21.215 1.01 172.743 0 172.743-2.023.504-19.195 1.516-20.71-2.526 0 0 4.04-74.246 4.547-75.762h-15.66c0 1.01-1.514 42.933-33.336 65.156-31.82 22.224-77.786 15.66-77.786 15.66 5.558-8.59 0-17.678 16.163-42.43 18.69-28.285 43.44-38.386 42.935-38.386h-21.213M1437.8 20.494c1.874 0 3.18-.687 3.18-2.306 0-1.435-.75-2.368-2.995-2.368h-1.995v4.674h1.81zm-3.805-6.422h4.304c2.426 0 4.796.874 4.796 3.99 0 1.558-1.06 3.057-2.49 3.494l3.056 5.36h-2.314l-2.432-4.738h-2.928v4.738h-1.998V14.072h.005zm13.654 6.674c0-5.986-4.176-10.413-9.413-10.413-5.235 0-9.412 4.427-9.412 10.413 0 5.923 4.177 10.222 9.412 10.222 5.237 0 9.412-4.3 9.412-10.222zm-20.76 0c0-7.297 5.174-12.158 11.347-12.158 6.23 0 11.346 4.86 11.346 12.158 0 7.23-5.114 12.032-11.346 12.032-6.173 0-11.348-4.803-11.348-12.032z" fill="#9CBE30"/></g></svg>